<svg width="10" height="16" viewBox="0 0 10 16" fill="none" xmlns="http://www.w3.org/2000/svg">
<path d="M2.41972 8.47752C3.00156 8.47754 3.47327 8.98027 3.47331 9.60033V11.4145C3.47331 12.0346 3.94503 12.5373 4.52691 12.5373H7.05852L7.05904 12.5378C7.15387 12.5294 7.25142 12.5638 7.32398 12.6412L9.90112 15.389C10.1123 15.6141 9.96284 15.9991 9.66422 15.9992H7.05904L7.05827 16H3.11551C2.83614 16 2.56814 15.8818 2.37059 15.6713L0.30867 13.4737C0.111101 13.2631 1.97968e-05 12.9776 0 12.6798V9.60033C4.5581e-05 8.98026 0.471739 8.47752 1.0536 8.47752H2.41972Z" fill="#7B9C09"/>
<path d="M2.41972 0C3.00159 1.8995e-05 3.47331 0.50271 3.47331 1.12281V2.93695C3.47331 3.55706 3.94503 4.05976 4.52691 4.05976H6.00518C6.58705 4.05978 7.05878 4.56247 7.05878 5.18257V6.39967C7.05878 7.01977 6.58705 7.52246 6.00518 7.52248H3.89594C3.61655 7.52244 3.34857 7.40407 3.15101 7.19353L0.30867 4.16447C0.111083 3.95391 0 3.66813 0 3.37034V1.12281C5.41586e-08 0.502698 0.471711 0 1.0536 0H2.41972Z" fill="#7B9C09"/>
</svg>
