<svg width="12" height="21" viewBox="0 0 12 21" fill="none" xmlns="http://www.w3.org/2000/svg">
<path d="M2.90366 11.0969C3.60187 11.0969 4.16792 11.7253 4.16798 12.5004V14.7681C4.16798 15.5432 4.73403 16.1716 5.43229 16.1716H8.47023L8.47084 16.1723C8.58464 16.1618 8.7017 16.2048 8.78877 16.3015L11.8813 19.7362C12.1347 20.0177 11.9554 20.4989 11.5971 20.499H8.47084L8.46992 20.5H3.73862C3.40337 20.5 3.08177 20.3523 2.84471 20.0892L0.370405 17.3421C0.133321 17.0789 2.37562e-05 16.722 0 16.3498V12.5004C5.46972e-05 11.7253 0.566087 11.0969 1.26431 11.0969H2.90366Z" fill="#7B9C09"/>
<path d="M2.90366 0.5C3.60191 0.500024 4.16798 1.12839 4.16798 1.90351V4.17119C4.16798 4.94633 4.73403 5.5747 5.43229 5.5747H7.20622C7.90446 5.57472 8.47054 6.20309 8.47054 6.97821V8.49959C8.47054 9.27471 7.90446 9.90307 7.20622 9.9031H4.67512C4.33986 9.90305 4.01828 9.75508 3.78121 9.49191L0.370405 5.70559C0.1333 5.44238 0 5.08516 0 4.71292V1.90351C6.49904e-08 1.12837 0.566053 0.5 1.26431 0.5H2.90366Z" fill="#7B9C09"/>
</svg>

